<?xml version="1.0" encoding="UTF-8"?>
<svg id="Calque_3" xmlns="http://www.w3.org/2000/svg" viewBox="0 0 1080 1080">
  <defs>
    <style>
      .cls-1 {
        fill: #191919;
      }

      .cls-2 {
        fill: #353535;
      }

      .cls-3 {
        fill: #565656;
      }
    </style>
  </defs>
  <path class="cls-3" d="M383.35,756.03l108.43,52.89c10.56,5.15,22.87-2.54,22.87-14.29v-382.28c0-3.93-1.45-7.72-4.08-10.63l-114.31-127.01c-3.01-3.35-7.31-5.26-11.82-5.26h-253.78c-11.57,0-19.26,11.96-14.47,22.49l47.07,103.3c2.58,5.67,8.24,9.31,14.47,9.31h146.89c5.45,0,10.53,2.8,13.44,7.41l33.91,53.68c1.6,2.54,2.46,5.48,2.46,8.49v267.62c0,6.08,3.47,11.62,8.93,14.29Z"/>
  <path class="cls-1" d="M696.65,756.03l-108.43,52.89c-10.56,5.15-22.87-2.54-22.87-14.29v-382.28c0-3.93,1.45-7.72,4.08-10.63l114.31-127.01c3.01-3.35,7.31-5.26,11.82-5.26h253.78c11.57,0,19.26,11.96,14.47,22.49l-47.07,103.3c-2.58,5.67-8.24,9.31-14.47,9.31h-146.89c-5.45,0-10.53,2.8-13.44,7.41l-33.91,53.68c-1.6,2.54-2.46,5.48-2.46,8.49v267.62c0,6.08-3.47,11.62-8.93,14.29Z"/>
  <path class="cls-2" d="M441.35,269.45h196.92c3.71,0,5.65,4.4,3.16,7.14l-98.27,108c-1.69,1.86-4.61,1.86-6.31,0l-98.65-108c-2.5-2.74-.56-7.15,3.15-7.15Z"/>
</svg>